<svg width="360" height="140" viewBox="0 0 360 140" fill="none" xmlns="http://www.w3.org/2000/svg">
  <rect x="6" y="8" width="348" height="124" rx="34" fill="#1E4F9A"/>
  <rect x="18" y="20" width="324" height="100" rx="28" fill="#255EB5"/>

  <g transform="translate(34 26)">
    <rect x="0" y="8" width="66" height="66" rx="20" fill="#163D7A"/>
    <rect x="8" y="16" width="50" height="50" rx="16" fill="#2E6BC6"/>

    <rect x="18" y="22" width="4" height="44" rx="2" fill="#F6E0B5"/>
    <rect x="30" y="22" width="4" height="44" rx="2" fill="#F6E0B5"/>
    <rect x="42" y="22" width="4" height="44" rx="2" fill="#F6E0B5"/>

    <rect x="14" y="18" width="12" height="20" rx="6" fill="#D4842C"/>
    <rect x="26" y="18" width="12" height="20" rx="6" fill="#C6741E"/>
    <rect x="38" y="18" width="12" height="20" rx="6" fill="#B66617"/>
    <rect x="14" y="36" width="12" height="20" rx="6" fill="#C6741E"/>
    <rect x="26" y="36" width="12" height="20" rx="6" fill="#B66617"/>
    <rect x="38" y="36" width="12" height="20" rx="6" fill="#D4842C"/>
  </g>

  <text x="118" y="64" fill="#FFFFFF" font-size="40" font-weight="800" font-family="Verdana, Arial, sans-serif">Sate Ayam</text>
  <text x="120" y="98" fill="#FF8B2B" font-size="28" font-weight="800" font-family="Verdana, Arial, sans-serif">BENTO</text>
</svg>
